<?xml version="1.0" encoding="UTF-8" standalone="no"?>
<!DOCTYPE svg PUBLIC "-//W3C//DTD SVG 1.1//EN" "http://www.w3.org/Graphics/SVG/1.1/DTD/svg11.dtd">
<svg width="100%" height="100%" viewBox="0 0 1590 1590" version="1.1" xmlns="http://www.w3.org/2000/svg" xmlns:xlink="http://www.w3.org/1999/xlink" xml:space="preserve" xmlns:serif="http://www.serif.com/" style="fill-rule:evenodd;clip-rule:evenodd;stroke-linejoin:round;stroke-miterlimit:2;">
    <rect id="Artboard1" x="0" y="0" width="1589.35" height="1589.35" style="fill:none;"/>
    <clipPath id="_clip1">
        <rect id="Artboard11" serif:id="Artboard1" x="0" y="0" width="1589.35" height="1589.35"/>
    </clipPath>
    <g clip-path="url(#_clip1)">
        <g transform="matrix(1,0,0,1,-1856.23,-495.434)">
            <g transform="matrix(0.37638,-0.647898,0.772381,0.448696,1129.54,1287.6)">
                <ellipse cx="1019.55" cy="1472.88" rx="627.859" ry="982.11" style="fill:rgb(254,222,153);"/>
            </g>
            <g transform="matrix(0.529827,-0.529827,0.631625,0.631625,1188.49,899.988)">
                <ellipse cx="1019.55" cy="1472.88" rx="627.859" ry="982.11" style="fill:rgb(104,225,190);"/>
            </g>
            <g id="_3-STARS" serif:id="3 STARS" transform="matrix(1,0,0,1,196.4,-6.56117)">
                <g id="SHADED-STAR" serif:id="SHADED STAR" transform="matrix(0.942617,0,0,0.942617,1236.59,-1230.54)">
                    <g transform="matrix(1,0,0,1,760.452,19.0203)">
                        <path d="M584.12,2278.76L591.088,2278.76C603.313,2281.07 614.244,2291.95 616.626,2304.81C618.616,2315.56 650.566,2481.24 661.581,2518.71C672.092,2554.47 681.472,2649.89 814.536,2681.98C837.498,2687.52 881.548,2704.36 891.641,2708.28C898.28,2710.85 905.607,2716.14 910.135,2722.7C914.379,2728.84 916.393,2735.95 915.529,2743.27C914.488,2752.1 909.087,2763.82 889.656,2772.22C859.124,2785.42 831.288,2792.67 783.698,2807.92C740.963,2821.61 677.338,2873.48 660.25,2968.04C643.248,3062.13 619.84,3162.19 617.479,3172.58C615.119,3182.97 604.435,3193.1 591.166,3195.67C588.813,3196.13 586.395,3196.13 584.042,3195.67C570.774,3193.1 560.089,3182.97 557.729,3172.58C555.368,3162.19 531.961,3062.13 514.959,2968.04C497.871,2873.48 434.245,2821.61 391.511,2807.92C343.92,2792.67 316.084,2785.42 285.553,2772.22C266.121,2763.82 260.721,2752.1 259.679,2743.27C258.816,2735.95 260.83,2728.84 265.074,2722.7C269.602,2716.14 276.929,2710.85 283.568,2708.28C293.661,2704.36 337.711,2687.52 360.673,2681.98C493.737,2649.89 503.116,2554.47 513.628,2518.71C524.642,2481.24 556.592,2315.56 558.582,2304.81C560.965,2291.95 571.896,2281.07 584.12,2278.76Z" style="fill:rgb(254,221,67);"/>
                    </g>
                    <path d="M1673.52,2771.05C1670.31,2778 1663.58,2785.42 1650.11,2791.24C1619.58,2804.44 1591.74,2811.69 1544.15,2826.94C1501.41,2840.63 1437.79,2892.5 1420.7,2987.06C1403.7,3081.15 1380.29,3181.21 1377.93,3191.6C1375.88,3200.66 1367.5,3209.51 1356.61,3213.34C1364.95,3202.58 1364.12,3195.41 1364.12,3195.41C1364.12,3195.41 1378.51,3003.23 1386.42,2918.05C1394.33,2832.87 1487.17,2816.26 1487.17,2816.26C1487.17,2816.26 1635.7,2784.01 1655.63,2779.82C1665.03,2777.85 1670.34,2774.91 1673.52,2771.05Z" style="fill:rgb(247,192,0);"/>
                    <path d="M1350.76,2297.78L1351.54,2297.78C1363.77,2300.09 1374.7,2310.97 1377.08,2323.83C1379.07,2334.58 1411.02,2500.26 1422.03,2537.73C1432.54,2573.49 1441.92,2668.91 1574.99,2701C1597.95,2706.54 1642,2723.38 1652.09,2727.3C1658.73,2729.87 1666.06,2735.16 1670.59,2741.72C1672.46,2744.43 1673.9,2747.34 1674.85,2750.36C1665.45,2741.72 1657.61,2740.58 1657.61,2740.58C1657.61,2740.58 1575.33,2726.43 1502.9,2715.94C1393.08,2700.02 1393.6,2600.57 1393.59,2596.78C1393.58,2592.99 1366.5,2331.6 1364.03,2317.41C1362.15,2306.66 1355.86,2300.14 1350.76,2297.78Z" style="fill:rgb(255,239,106);"/>
                </g>
                <g id="SHADED-STAR1" serif:id="SHADED STAR" transform="matrix(0.343744,0,0,0.343744,1739.3,171.847)">
                    <g transform="matrix(1,0,0,1,760.452,19.0203)">
                        <path d="M584.12,2278.76L591.088,2278.76C603.313,2281.07 614.244,2291.95 616.626,2304.81C618.616,2315.56 650.566,2481.24 661.581,2518.71C672.092,2554.47 681.472,2649.89 814.536,2681.98C837.498,2687.52 881.548,2704.36 891.641,2708.28C898.28,2710.85 905.607,2716.14 910.135,2722.7C914.379,2728.84 916.393,2735.95 915.529,2743.27C914.488,2752.1 909.087,2763.82 889.656,2772.22C859.124,2785.42 831.288,2792.67 783.698,2807.92C740.963,2821.61 677.338,2873.48 660.25,2968.04C643.248,3062.13 619.84,3162.19 617.479,3172.58C615.119,3182.97 604.435,3193.1 591.166,3195.67C588.813,3196.13 586.395,3196.13 584.042,3195.67C570.774,3193.1 560.089,3182.97 557.729,3172.58C555.368,3162.19 531.961,3062.13 514.959,2968.04C497.871,2873.48 434.245,2821.61 391.511,2807.92C343.92,2792.67 316.084,2785.42 285.553,2772.22C266.121,2763.82 260.721,2752.1 259.679,2743.27C258.816,2735.95 260.83,2728.84 265.074,2722.7C269.602,2716.14 276.929,2710.85 283.568,2708.28C293.661,2704.36 337.711,2687.52 360.673,2681.98C493.737,2649.89 503.116,2554.47 513.628,2518.71C524.642,2481.24 556.592,2315.56 558.582,2304.81C560.965,2291.95 571.896,2281.07 584.12,2278.76Z" style="fill:rgb(254,221,67);"/>
                    </g>
                    <path d="M1673.52,2771.05C1670.31,2778 1663.58,2785.42 1650.11,2791.24C1619.58,2804.44 1591.74,2811.69 1544.15,2826.94C1501.41,2840.63 1437.79,2892.5 1420.7,2987.06C1403.7,3081.15 1380.29,3181.21 1377.93,3191.6C1375.88,3200.66 1367.5,3209.51 1356.61,3213.34C1364.95,3202.58 1364.12,3195.41 1364.12,3195.41C1364.12,3195.41 1378.51,3003.23 1386.42,2918.05C1394.33,2832.87 1487.17,2816.26 1487.17,2816.26C1487.17,2816.26 1635.7,2784.01 1655.63,2779.82C1665.03,2777.85 1670.34,2774.91 1673.52,2771.05Z" style="fill:rgb(247,192,0);"/>
                    <path d="M1350.76,2297.78L1351.54,2297.78C1363.77,2300.09 1374.7,2310.97 1377.08,2323.83C1379.07,2334.58 1411.02,2500.26 1422.03,2537.73C1432.54,2573.49 1441.92,2668.91 1574.99,2701C1597.95,2706.54 1642,2723.38 1652.09,2727.3C1658.73,2729.87 1666.06,2735.16 1670.59,2741.72C1672.46,2744.43 1673.9,2747.34 1674.85,2750.36C1665.45,2741.72 1657.61,2740.58 1657.61,2740.58C1657.61,2740.58 1575.33,2726.43 1502.9,2715.94C1393.08,2700.02 1393.6,2600.57 1393.59,2596.78C1393.58,2592.99 1366.5,2331.6 1364.03,2317.41C1362.15,2306.66 1355.86,2300.14 1350.76,2297.78Z" style="fill:rgb(255,239,106);"/>
                </g>
                <g id="SHADED-STAR2" serif:id="SHADED STAR" transform="matrix(0.44977,0,0,0.44977,1476.19,360.536)">
                    <g transform="matrix(1,0,0,1,760.452,19.0203)">
                        <path d="M584.12,2278.76L591.088,2278.76C603.313,2281.07 614.244,2291.95 616.626,2304.81C618.616,2315.56 650.566,2481.24 661.581,2518.71C672.092,2554.47 681.472,2649.89 814.536,2681.98C837.498,2687.52 881.548,2704.36 891.641,2708.28C898.28,2710.85 905.607,2716.14 910.135,2722.7C914.379,2728.84 916.393,2735.95 915.529,2743.27C914.488,2752.1 909.087,2763.82 889.656,2772.22C859.124,2785.42 831.288,2792.67 783.698,2807.92C740.963,2821.61 677.338,2873.48 660.25,2968.04C643.248,3062.13 619.84,3162.19 617.479,3172.58C615.119,3182.97 604.435,3193.1 591.166,3195.67C588.813,3196.13 586.395,3196.13 584.042,3195.67C570.774,3193.1 560.089,3182.97 557.729,3172.58C555.368,3162.19 531.961,3062.13 514.959,2968.04C497.871,2873.48 434.245,2821.61 391.511,2807.92C343.92,2792.67 316.084,2785.42 285.553,2772.22C266.121,2763.82 260.721,2752.1 259.679,2743.27C258.816,2735.95 260.83,2728.84 265.074,2722.7C269.602,2716.14 276.929,2710.85 283.568,2708.28C293.661,2704.36 337.711,2687.52 360.673,2681.98C493.737,2649.89 503.116,2554.47 513.628,2518.71C524.642,2481.24 556.592,2315.56 558.582,2304.81C560.965,2291.95 571.896,2281.07 584.12,2278.76Z" style="fill:rgb(254,221,67);"/>
                    </g>
                    <path d="M1673.52,2771.05C1670.31,2778 1663.58,2785.42 1650.11,2791.24C1619.58,2804.44 1591.74,2811.69 1544.15,2826.94C1501.41,2840.63 1437.79,2892.5 1420.7,2987.06C1403.7,3081.15 1380.29,3181.21 1377.93,3191.6C1375.88,3200.66 1367.5,3209.51 1356.61,3213.34C1364.95,3202.58 1364.12,3195.41 1364.12,3195.41C1364.12,3195.41 1378.51,3003.23 1386.42,2918.05C1394.33,2832.87 1487.17,2816.26 1487.17,2816.26C1487.17,2816.26 1635.7,2784.01 1655.63,2779.82C1665.03,2777.85 1670.34,2774.91 1673.52,2771.05Z" style="fill:rgb(247,192,0);"/>
                    <path d="M1350.76,2297.78L1351.54,2297.78C1363.77,2300.09 1374.7,2310.97 1377.08,2323.83C1379.07,2334.58 1411.02,2500.26 1422.03,2537.73C1432.54,2573.49 1441.92,2668.91 1574.99,2701C1597.95,2706.54 1642,2723.38 1652.09,2727.3C1658.73,2729.87 1666.06,2735.16 1670.59,2741.72C1672.46,2744.43 1673.9,2747.34 1674.85,2750.36C1665.45,2741.72 1657.61,2740.58 1657.61,2740.58C1657.61,2740.58 1575.33,2726.43 1502.9,2715.94C1393.08,2700.02 1393.6,2600.57 1393.59,2596.78C1393.58,2592.99 1366.5,2331.6 1364.03,2317.41C1362.15,2306.66 1355.86,2300.14 1350.76,2297.78Z" style="fill:rgb(255,239,106);"/>
                </g>
            </g>
        </g>
    </g>
</svg>
